<?xml version="1.0" encoding="utf-8"?>
<svg viewBox="0 0 500 500" xmlns="http://www.w3.org/2000/svg">
  <g id="SVGRepo_bgCarrier" stroke-width="0" transform="matrix(1, 0, 0, 1, 116.42131805419922, 229.99044799804688)"/>
  <g id="SVGRepo_tracerCarrier" stroke-linecap="round" stroke-linejoin="round" transform="matrix(1, 0, 0, 1, 116.42131805419922, 229.99044799804688)"/>
  <g id="SVGRepo_iconCarrier" transform="matrix(0, -3.118963003159, 3.191463947296, 0, 153.949971353832, 154.050013095683)" style="transform-origin: 96.05px 95.95px;">
    <path d="M84 128.6H54.6C36.6 128.6 22 114 22 96c0-9 3.7-17.2 9.6-23.1 5.9-5.9 14.1-9.6 23.1-9.6H84m24 65.3h29.4c9 0 17.2-3.7 23.1-9.6 5.9-5.9 9.6-14.1 9.6-23.1 0-18-14.6-32.6-32.6-32.6H108M67.9 96h56.2" style="fill: none; stroke-width: 12; stroke-linecap: round; stroke-linejoin: round; stroke-miterlimit: 10; stroke: #2f87e0; paint-order: stroke;"/>
  </g>
  <g id="g-1" transform="matrix(3.118963003159, 0, 0, 3.191463947296, 153.94998308962, 154.050004160228)" style="transform-origin: 96.05px 95.95px;">
    <path d="M84 128.6H54.6C36.6 128.6 22 114 22 96c0-9 3.7-17.2 9.6-23.1 5.9-5.9 14.1-9.6 23.1-9.6H84m24 65.3h29.4c9 0 17.2-3.7 23.1-9.6 5.9-5.9 9.6-14.1 9.6-23.1 0-18-14.6-32.6-32.6-32.6H108M67.9 96h56.2" style="fill: none; stroke-width: 12; stroke-linecap: round; stroke-linejoin: round; stroke-miterlimit: 10; stroke: #2f87e0; paint-order: stroke;"/>
  </g>
</svg>