<svg id="visual" viewBox="0 0 1500 800" width="1500" height="800" xmlns="http://www.w3.org/2000/svg" xmlns:xlink="http://www.w3.org/1999/xlink" version="1.1"><rect width="1500" height="800" fill="#001829"></rect><g><g transform="translate(491 772)"><path d="M0 -19.5L19.5 0L0 19.5L-19.5 0Z" fill="#5c5cf3"></path></g><g transform="translate(390 611)"><path d="M0 -15L15 0L0 15L-15 0Z" fill="#5c5cf3"></path></g><g transform="translate(189 72)"><path d="M0 -4L4 0L0 4L-4 0Z" fill="#5c5cf3"></path></g><g transform="translate(260 533)"><path d="M0 -15L15 0L0 15L-15 0Z" fill="#5c5cf3"></path></g><g transform="translate(586 207)"><path d="M0 -8L8 0L0 8L-8 0Z" fill="#5c5cf3"></path></g><g transform="translate(1395 553)"><path d="M0 -8L8 0L0 8L-8 0Z" fill="#5c5cf3"></path></g><g transform="translate(443 229)"><path d="M0 -13L13 0L0 13L-13 0Z" fill="#5c5cf3"></path></g><g transform="translate(1309 524)"><path d="M0 -11L11 0L0 11L-11 0Z" fill="#5c5cf3"></path></g><g transform="translate(322 106)"><path d="M0 -9L9 0L0 9L-9 0Z" fill="#5c5cf3"></path></g><g transform="translate(160 273)"><path d="M0 -7L7 0L0 7L-7 0Z" fill="#5c5cf3"></path></g><g transform="translate(665 626)"><path d="M0 -16L16 0L0 16L-16 0Z" fill="#5c5cf3"></path></g><g transform="translate(885 795)"><path d="M0 -9L9 0L0 9L-9 0Z" fill="#5c5cf3"></path></g><g transform="translate(96 737)"><path d="M0 -11L11 0L0 11L-11 0Z" fill="#5c5cf3"></path></g><g transform="translate(1148 430)"><path d="M0 -9L9 0L0 9L-9 0Z" fill="#5c5cf3"></path></g><g transform="translate(246 723)"><path d="M0 -11L11 0L0 11L-11 0Z" fill="#5c5cf3"></path></g><g transform="translate(1017 299)"><path d="M0 -15L15 0L0 15L-15 0Z" fill="#5c5cf3"></path></g><g transform="translate(1097 217)"><path d="M0 -12L12 0L0 12L-12 0Z" fill="#5c5cf3"></path></g><g transform="translate(1138 360)"><path d="M0 -10L10 0L0 10L-10 0Z" fill="#5c5cf3"></path></g><g transform="translate(219 397)"><path d="M0 -15L15 0L0 15L-15 0Z" fill="#5c5cf3"></path></g><g transform="translate(510 645)"><path d="M0 -16L16 0L0 16L-16 0Z" fill="#5c5cf3"></path></g><g transform="translate(918 44)"><path d="M0 -5L5 0L0 5L-5 0Z" fill="#5c5cf3"></path></g><g transform="translate(1242 416)"><path d="M0 -11L11 0L0 11L-11 0Z" fill="#5c5cf3"></path></g><g transform="translate(992 450)"><path d="M0 -7L7 0L0 7L-7 0Z" fill="#5c5cf3"></path></g><g transform="translate(413 408)"><path d="M0 -7L7 0L0 7L-7 0Z" fill="#5c5cf3"></path></g><g transform="translate(105 529)"><path d="M0 -9L9 0L0 9L-9 0Z" fill="#5c5cf3"></path></g><g transform="translate(716 554)"><path d="M0 -16L16 0L0 16L-16 0Z" fill="#5c5cf3"></path></g><g transform="translate(1078 150)"><path d="M0 -12L12 0L0 12L-12 0Z" fill="#5c5cf3"></path></g><g transform="translate(244 72)"><path d="M0 -4L4 0L0 4L-4 0Z" fill="#5c5cf3"></path></g><g transform="translate(1275 312)"><path d="M0 -17L17 0L0 17L-17 0Z" fill="#5c5cf3"></path></g><g transform="translate(456 487)"><path d="M0 -16L16 0L0 16L-16 0Z" fill="#5c5cf3"></path></g><g transform="translate(793 514)"><path d="M0 -17L17 0L0 17L-17 0Z" fill="#5c5cf3"></path></g><g transform="translate(1092 515)"><path d="M0 -7L7 0L0 7L-7 0Z" fill="#5c5cf3"></path></g><g transform="translate(162 589)"><path d="M0 -6L6 0L0 6L-6 0Z" fill="#5c5cf3"></path></g><g transform="translate(808 554)"><path d="M0 -4L4 0L0 4L-4 0Z" fill="#5c5cf3"></path></g><g transform="translate(769 467)"><path d="M0 -6L6 0L0 6L-6 0Z" fill="#5c5cf3"></path></g><g transform="translate(145 231)"><path d="M0 -10L10 0L0 10L-10 0Z" fill="#5c5cf3"></path></g><g transform="translate(1197 333)"><path d="M0 -10L10 0L0 10L-10 0Z" fill="#5c5cf3"></path></g><g transform="translate(1465 228)"><path d="M0 -14L14 0L0 14L-14 0Z" fill="#5c5cf3"></path></g><g transform="translate(1315 188)"><path d="M0 -6L6 0L0 6L-6 0Z" fill="#5c5cf3"></path></g><g transform="translate(1052 344)"><path d="M0 -4L4 0L0 4L-4 0Z" fill="#5c5cf3"></path></g><g transform="translate(808 775)"><path d="M0 -9L9 0L0 9L-9 0Z" fill="#5c5cf3"></path></g><g transform="translate(1332 641)"><path d="M0 -7L7 0L0 7L-7 0Z" fill="#5c5cf3"></path></g><g transform="translate(802 265)"><path d="M0 -8L8 0L0 8L-8 0Z" fill="#5c5cf3"></path></g><g transform="translate(878 383)"><path d="M0 -12L12 0L0 12L-12 0Z" fill="#5c5cf3"></path></g><g transform="translate(861 550)"><path d="M0 -16L16 0L0 16L-16 0Z" fill="#5c5cf3"></path></g><g transform="translate(1248 66)"><path d="M0 -17L17 0L0 17L-17 0Z" fill="#5c5cf3"></path></g><g transform="translate(1021 655)"><path d="M0 -10L10 0L0 10L-10 0Z" fill="#5c5cf3"></path></g><g transform="translate(1234 732)"><path d="M0 -6L6 0L0 6L-6 0Z" fill="#5c5cf3"></path></g><g transform="translate(742 199)"><path d="M0 -10L10 0L0 10L-10 0Z" fill="#5c5cf3"></path></g><g transform="translate(110 27)"><path d="M0 -15L15 0L0 15L-15 0Z" fill="#5c5cf3"></path></g><g transform="translate(673 469)"><path d="M0 -17L17 0L0 17L-17 0Z" fill="#5c5cf3"></path></g><g transform="translate(187 537)"><path d="M0 -16L16 0L0 16L-16 0Z" fill="#5c5cf3"></path></g><g transform="translate(565 285)"><path d="M0 -18L18 0L0 18L-18 0Z" fill="#5c5cf3"></path></g><g transform="translate(932 655)"><path d="M0 -5L5 0L0 5L-5 0Z" fill="#5c5cf3"></path></g><g transform="translate(543 595)"><path d="M0 -5L5 0L0 5L-5 0Z" fill="#5c5cf3"></path></g><g transform="translate(93 275)"><path d="M0 -12L12 0L0 12L-12 0Z" fill="#5c5cf3"></path></g><g transform="translate(485 383)"><path d="M0 -4L4 0L0 4L-4 0Z" fill="#5c5cf3"></path></g><g transform="translate(233 451)"><path d="M0 -10L10 0L0 10L-10 0Z" fill="#5c5cf3"></path></g><g transform="translate(1217 16)"><path d="M0 -9L9 0L0 9L-9 0Z" fill="#5c5cf3"></path></g><g transform="translate(819 113)"><path d="M0 -4L4 0L0 4L-4 0Z" fill="#5c5cf3"></path></g><g transform="translate(404 251)"><path d="M0 -4L4 0L0 4L-4 0Z" fill="#5c5cf3"></path></g><g transform="translate(994 234)"><path d="M0 -7L7 0L0 7L-7 0Z" fill="#5c5cf3"></path></g><g transform="translate(499 711)"><path d="M0 -8L8 0L0 8L-8 0Z" fill="#5c5cf3"></path></g><g transform="translate(252 607)"><path d="M0 -4L4 0L0 4L-4 0Z" fill="#5c5cf3"></path></g><g transform="translate(181 195)"><path d="M0 -18L18 0L0 18L-18 0Z" fill="#5c5cf3"></path></g><g transform="translate(745 142)"><path d="M0 -13L13 0L0 13L-13 0Z" fill="#5c5cf3"></path></g><g transform="translate(1312 600)"><path d="M0 -15L15 0L0 15L-15 0Z" fill="#5c5cf3"></path></g><g transform="translate(606 395)"><path d="M0 -7L7 0L0 7L-7 0Z" fill="#5c5cf3"></path></g><g transform="translate(1260 120)"><path d="M0 -12L12 0L0 12L-12 0Z" fill="#5c5cf3"></path></g><g transform="translate(1110 763)"><path d="M0 -10L10 0L0 10L-10 0Z" fill="#5c5cf3"></path></g><g transform="translate(304 21)"><path d="M0 -4L4 0L0 4L-4 0Z" fill="#5c5cf3"></path></g><g transform="translate(1462 585)"><path d="M0 -13L13 0L0 13L-13 0Z" fill="#5c5cf3"></path></g><g transform="translate(314 326)"><path d="M0 -12L12 0L0 12L-12 0Z" fill="#5c5cf3"></path></g><g transform="translate(1449 505)"><path d="M0 -12L12 0L0 12L-12 0Z" fill="#5c5cf3"></path></g><g transform="translate(1488 117)"><path d="M0 -16L16 0L0 16L-16 0Z" fill="#5c5cf3"></path></g><g transform="translate(621 278)"><path d="M0 -6L6 0L0 6L-6 0Z" fill="#5c5cf3"></path></g><g transform="translate(1195 133)"><path d="M0 -7L7 0L0 7L-7 0Z" fill="#5c5cf3"></path></g><g transform="translate(628 128)"><path d="M0 -6L6 0L0 6L-6 0Z" fill="#5c5cf3"></path></g><g transform="translate(722 446)"><path d="M0 -4L4 0L0 4L-4 0Z" fill="#5c5cf3"></path></g><g transform="translate(1269 382)"><path d="M0 -11L11 0L0 11L-11 0Z" fill="#5c5cf3"></path></g><g transform="translate(67 455)"><path d="M0 -11L11 0L0 11L-11 0Z" fill="#5c5cf3"></path></g><g transform="translate(174 644)"><path d="M0 -13L13 0L0 13L-13 0Z" fill="#5c5cf3"></path></g><g transform="translate(1252 496)"><path d="M0 -14L14 0L0 14L-14 0Z" fill="#5c5cf3"></path></g><g transform="translate(617 16)"><path d="M0 -7L7 0L0 7L-7 0Z" fill="#5c5cf3"></path></g><g transform="translate(827 631)"><path d="M0 -8L8 0L0 8L-8 0Z" fill="#5c5cf3"></path></g><g transform="translate(813 450)"><path d="M0 -11L11 0L0 11L-11 0Z" fill="#5c5cf3"></path></g><g transform="translate(679 317)"><path d="M0 -16L16 0L0 16L-16 0Z" fill="#5c5cf3"></path></g><g transform="translate(888 715)"><path d="M0 -4L4 0L0 4L-4 0Z" fill="#5c5cf3"></path></g><g transform="translate(1337 786)"><path d="M0 -9L9 0L0 9L-9 0Z" fill="#5c5cf3"></path></g><g transform="translate(1119 721)"><path d="M0 -7L7 0L0 7L-7 0Z" fill="#5c5cf3"></path></g><g transform="translate(491 82)"><path d="M0 -6L6 0L0 6L-6 0Z" fill="#5c5cf3"></path></g><g transform="translate(568 503)"><path d="M0 -6L6 0L0 6L-6 0Z" fill="#5c5cf3"></path></g><g transform="translate(1173 210)"><path d="M0 -17L17 0L0 17L-17 0Z" fill="#5c5cf3"></path></g><g transform="translate(395 158)"><path d="M0 -4L4 0L0 4L-4 0Z" fill="#5c5cf3"></path></g><g transform="translate(329 528)"><path d="M0 -13L13 0L0 13L-13 0Z" fill="#5c5cf3"></path></g><g transform="translate(651 565)"><path d="M0 -11L11 0L0 11L-11 0Z" fill="#5c5cf3"></path></g><g transform="translate(876 426)"><path d="M0 -13L13 0L0 13L-13 0Z" fill="#5c5cf3"></path></g><g transform="translate(559 632)"><path d="M0 -18L18 0L0 18L-18 0Z" fill="#5c5cf3"></path></g><g transform="translate(808 405)"><path d="M0 -8L8 0L0 8L-8 0Z" fill="#5c5cf3"></path></g><g transform="translate(1050 514)"><path d="M0 -15L15 0L0 15L-15 0Z" fill="#5c5cf3"></path></g><g transform="translate(438 361)"><path d="M0 -18L18 0L0 18L-18 0Z" fill="#5c5cf3"></path></g><g transform="translate(321 736)"><path d="M0 -8L8 0L0 8L-8 0Z" fill="#5c5cf3"></path></g><g transform="translate(489 434)"><path d="M0 -10L10 0L0 10L-10 0Z" fill="#5c5cf3"></path></g><g transform="translate(79 165)"><path d="M0 -16L16 0L0 16L-16 0Z" fill="#5c5cf3"></path></g><g transform="translate(1408 731)"><path d="M0 -5L5 0L0 5L-5 0Z" fill="#5c5cf3"></path></g><g transform="translate(1452 329)"><path d="M0 -12L12 0L0 12L-12 0Z" fill="#5c5cf3"></path></g><g transform="translate(339 771)"><path d="M0 -6L6 0L0 6L-6 0Z" fill="#5c5cf3"></path></g><g transform="translate(41 264)"><path d="M0 -13L13 0L0 13L-13 0Z" fill="#5c5cf3"></path></g><g transform="translate(359 201)"><path d="M0 -7L7 0L0 7L-7 0Z" fill="#5c5cf3"></path></g><g transform="translate(1417 265)"><path d="M0 -9L9 0L0 9L-9 0Z" fill="#5c5cf3"></path></g><g transform="translate(1304 459)"><path d="M0 -7L7 0L0 7L-7 0Z" fill="#5c5cf3"></path></g><g transform="translate(544 98)"><path d="M0 -12L12 0L0 12L-12 0Z" fill="#5c5cf3"></path></g><g transform="translate(66 779)"><path d="M0 -7L7 0L0 7L-7 0Z" fill="#5c5cf3"></path></g><g transform="translate(153 375)"><path d="M0 -11L11 0L0 11L-11 0Z" fill="#5c5cf3"></path></g><g transform="translate(343 247)"><path d="M0 -5L5 0L0 5L-5 0Z" fill="#5c5cf3"></path></g><g transform="translate(975 765)"><path d="M0 -4L4 0L0 4L-4 0Z" fill="#5c5cf3"></path></g><g transform="translate(18 221)"><path d="M0 -4L4 0L0 4L-4 0Z" fill="#5c5cf3"></path></g><g transform="translate(1092 476)"><path d="M0 -11L11 0L0 11L-11 0Z" fill="#5c5cf3"></path></g><g transform="translate(778 705)"><path d="M0 -13L13 0L0 13L-13 0Z" fill="#5c5cf3"></path></g><g transform="translate(1244 619)"><path d="M0 -16L16 0L0 16L-16 0Z" fill="#5c5cf3"></path></g><g transform="translate(979 47)"><path d="M0 -13L13 0L0 13L-13 0Z" fill="#5c5cf3"></path></g><g transform="translate(552 38)"><path d="M0 -5L5 0L0 5L-5 0Z" fill="#5c5cf3"></path></g><g transform="translate(597 582)"><path d="M0 -8L8 0L0 8L-8 0Z" fill="#5c5cf3"></path></g><g transform="translate(1063 52)"><path d="M0 -13L13 0L0 13L-13 0Z" fill="#5c5cf3"></path></g><g transform="translate(688 155)"><path d="M0 -11L11 0L0 11L-11 0Z" fill="#5c5cf3"></path></g><g transform="translate(950 435)"><path d="M0 -10L10 0L0 10L-10 0Z" fill="#5c5cf3"></path></g><g transform="translate(718 772)"><path d="M0 -4L4 0L0 4L-4 0Z" fill="#5c5cf3"></path></g><g transform="translate(309 284)"><path d="M0 -16L16 0L0 16L-16 0Z" fill="#5c5cf3"></path></g><g transform="translate(1438 678)"><path d="M0 -14L14 0L0 14L-14 0Z" fill="#5c5cf3"></path></g><g transform="translate(8 736)"><path d="M0 -10L10 0L0 10L-10 0Z" fill="#5c5cf3"></path></g><g transform="translate(437 760)"><path d="M0 -8L8 0L0 8L-8 0Z" fill="#5c5cf3"></path></g><g transform="translate(878 112)"><path d="M0 -5L5 0L0 5L-5 0Z" fill="#5c5cf3"></path></g><g transform="translate(411 561)"><path d="M0 -4L4 0L0 4L-4 0Z" fill="#5c5cf3"></path></g><g transform="translate(906 166)"><path d="M0 -7L7 0L0 7L-7 0Z" fill="#5c5cf3"></path></g><g transform="translate(158 768)"><path d="M0 -10L10 0L0 10L-10 0Z" fill="#5c5cf3"></path></g><g transform="translate(1140 505)"><path d="M0 -10L10 0L0 10L-10 0Z" fill="#5c5cf3"></path></g><g transform="translate(1375 405)"><path d="M0 -12L12 0L0 12L-12 0Z" fill="#5c5cf3"></path></g><g transform="translate(302 189)"><path d="M0 -14L14 0L0 14L-14 0Z" fill="#5c5cf3"></path></g><g transform="translate(543 693)"><path d="M0 -14L14 0L0 14L-14 0Z" fill="#5c5cf3"></path></g><g transform="translate(706 681)"><path d="M0 -9L9 0L0 9L-9 0Z" fill="#5c5cf3"></path></g><g transform="translate(1362 54)"><path d="M0 -13L13 0L0 13L-13 0Z" fill="#5c5cf3"></path></g><g transform="translate(222 287)"><path d="M0 -6L6 0L0 6L-6 0Z" fill="#5c5cf3"></path></g><g transform="translate(856 745)"><path d="M0 -11L11 0L0 11L-11 0Z" fill="#5c5cf3"></path></g><g transform="translate(1463 400)"><path d="M0 -9L9 0L0 9L-9 0Z" fill="#5c5cf3"></path></g><g transform="translate(852 58)"><path d="M0 -11L11 0L0 11L-11 0Z" fill="#5c5cf3"></path></g><g transform="translate(1305 20)"><path d="M0 -12L12 0L0 12L-12 0Z" fill="#5c5cf3"></path></g><g transform="translate(719 254)"><path d="M0 -9L9 0L0 9L-9 0Z" fill="#5c5cf3"></path></g><g transform="translate(1438 438)"><path d="M0 -6L6 0L0 6L-6 0Z" fill="#5c5cf3"></path></g><g transform="translate(310 468)"><path d="M0 -14L14 0L0 14L-14 0Z" fill="#5c5cf3"></path></g><g transform="translate(118 622)"><path d="M0 -12L12 0L0 12L-12 0Z" fill="#5c5cf3"></path></g><g transform="translate(899 522)"><path d="M0 -10L10 0L0 10L-10 0Z" fill="#5c5cf3"></path></g><g transform="translate(1225 241)"><path d="M0 -13L13 0L0 13L-13 0Z" fill="#5c5cf3"></path></g><g transform="translate(1108 655)"><path d="M0 -11L11 0L0 11L-11 0Z" fill="#5c5cf3"></path></g></g></svg>