<svg id="visual" viewBox="0 0 1500 800" width="1500" height="800" xmlns="http://www.w3.org/2000/svg" xmlns:xlink="http://www.w3.org/1999/xlink" version="1.1"><rect width="1500" height="800" fill="#001829"></rect><g><g transform="translate(916 48)"><path d="M0 -19.5L19.5 0L0 19.5L-19.5 0Z" fill="#016b5e"></path></g><g transform="translate(455 603)"><path d="M0 -12L12 0L0 12L-12 0Z" fill="#016b5e"></path></g><g transform="translate(478 728)"><path d="M0 -17L17 0L0 17L-17 0Z" fill="#016b5e"></path></g><g transform="translate(1381 416)"><path d="M0 -5L5 0L0 5L-5 0Z" fill="#016b5e"></path></g><g transform="translate(1260 262)"><path d="M0 -4L4 0L0 4L-4 0Z" fill="#016b5e"></path></g><g transform="translate(1253 174)"><path d="M0 -15L15 0L0 15L-15 0Z" fill="#016b5e"></path></g><g transform="translate(1311 596)"><path d="M0 -11L11 0L0 11L-11 0Z" fill="#016b5e"></path></g><g transform="translate(101 659)"><path d="M0 -17L17 0L0 17L-17 0Z" fill="#016b5e"></path></g><g transform="translate(1103 746)"><path d="M0 -7L7 0L0 7L-7 0Z" fill="#016b5e"></path></g><g transform="translate(530 476)"><path d="M0 -13L13 0L0 13L-13 0Z" fill="#016b5e"></path></g><g transform="translate(1246 376)"><path d="M0 -5L5 0L0 5L-5 0Z" fill="#016b5e"></path></g><g transform="translate(1274 630)"><path d="M0 -14L14 0L0 14L-14 0Z" fill="#016b5e"></path></g><g transform="translate(404 52)"><path d="M0 -14L14 0L0 14L-14 0Z" fill="#016b5e"></path></g><g transform="translate(52 201)"><path d="M0 -14L14 0L0 14L-14 0Z" fill="#016b5e"></path></g><g transform="translate(1266 88)"><path d="M0 -8L8 0L0 8L-8 0Z" fill="#016b5e"></path></g><g transform="translate(545 275)"><path d="M0 -4L4 0L0 4L-4 0Z" fill="#016b5e"></path></g><g transform="translate(498 586)"><path d="M0 -9L9 0L0 9L-9 0Z" fill="#016b5e"></path></g><g transform="translate(522 750)"><path d="M0 -8L8 0L0 8L-8 0Z" fill="#016b5e"></path></g><g transform="translate(1059 87)"><path d="M0 -12L12 0L0 12L-12 0Z" fill="#016b5e"></path></g><g transform="translate(1123 267)"><path d="M0 -17L17 0L0 17L-17 0Z" fill="#016b5e"></path></g><g transform="translate(1030 697)"><path d="M0 -8L8 0L0 8L-8 0Z" fill="#016b5e"></path></g><g transform="translate(945 394)"><path d="M0 -5L5 0L0 5L-5 0Z" fill="#016b5e"></path></g><g transform="translate(1193 436)"><path d="M0 -6L6 0L0 6L-6 0Z" fill="#016b5e"></path></g><g transform="translate(402 166)"><path d="M0 -5L5 0L0 5L-5 0Z" fill="#016b5e"></path></g><g transform="translate(470 456)"><path d="M0 -9L9 0L0 9L-9 0Z" fill="#016b5e"></path></g><g transform="translate(1276 689)"><path d="M0 -18L18 0L0 18L-18 0Z" fill="#016b5e"></path></g><g transform="translate(1440 298)"><path d="M0 -8L8 0L0 8L-8 0Z" fill="#016b5e"></path></g><g transform="translate(439 428)"><path d="M0 -15L15 0L0 15L-15 0Z" fill="#016b5e"></path></g><g transform="translate(252 696)"><path d="M0 -15L15 0L0 15L-15 0Z" fill="#016b5e"></path></g><g transform="translate(1390 588)"><path d="M0 -12L12 0L0 12L-12 0Z" fill="#016b5e"></path></g><g transform="translate(937 612)"><path d="M0 -15L15 0L0 15L-15 0Z" fill="#016b5e"></path></g><g transform="translate(1188 580)"><path d="M0 -14L14 0L0 14L-14 0Z" fill="#016b5e"></path></g><g transform="translate(1069 598)"><path d="M0 -15L15 0L0 15L-15 0Z" fill="#016b5e"></path></g><g transform="translate(700 695)"><path d="M0 -18L18 0L0 18L-18 0Z" fill="#016b5e"></path></g><g transform="translate(1287 134)"><path d="M0 -17L17 0L0 17L-17 0Z" fill="#016b5e"></path></g><g transform="translate(222 255)"><path d="M0 -11L11 0L0 11L-11 0Z" fill="#016b5e"></path></g><g transform="translate(735 211)"><path d="M0 -9L9 0L0 9L-9 0Z" fill="#016b5e"></path></g><g transform="translate(907 271)"><path d="M0 -10L10 0L0 10L-10 0Z" fill="#016b5e"></path></g><g transform="translate(638 733)"><path d="M0 -4L4 0L0 4L-4 0Z" fill="#016b5e"></path></g><g transform="translate(1456 188)"><path d="M0 -4L4 0L0 4L-4 0Z" fill="#016b5e"></path></g><g transform="translate(988 69)"><path d="M0 -8L8 0L0 8L-8 0Z" fill="#016b5e"></path></g><g transform="translate(49 440)"><path d="M0 -10L10 0L0 10L-10 0Z" fill="#016b5e"></path></g><g transform="translate(1062 154)"><path d="M0 -15L15 0L0 15L-15 0Z" fill="#016b5e"></path></g><g transform="translate(1470 727)"><path d="M0 -10L10 0L0 10L-10 0Z" fill="#016b5e"></path></g><g transform="translate(990 387)"><path d="M0 -18L18 0L0 18L-18 0Z" fill="#016b5e"></path></g><g transform="translate(254 166)"><path d="M0 -8L8 0L0 8L-8 0Z" fill="#016b5e"></path></g><g transform="translate(169 302)"><path d="M0 -13L13 0L0 13L-13 0Z" fill="#016b5e"></path></g><g transform="translate(657 71)"><path d="M0 -6L6 0L0 6L-6 0Z" fill="#016b5e"></path></g><g transform="translate(983 278)"><path d="M0 -5L5 0L0 5L-5 0Z" fill="#016b5e"></path></g><g transform="translate(60 703)"><path d="M0 -5L5 0L0 5L-5 0Z" fill="#016b5e"></path></g><g transform="translate(882 143)"><path d="M0 -14L14 0L0 14L-14 0Z" fill="#016b5e"></path></g><g transform="translate(50 750)"><path d="M0 -17L17 0L0 17L-17 0Z" fill="#016b5e"></path></g><g transform="translate(95 529)"><path d="M0 -5L5 0L0 5L-5 0Z" fill="#016b5e"></path></g><g transform="translate(667 540)"><path d="M0 -12L12 0L0 12L-12 0Z" fill="#016b5e"></path></g><g transform="translate(1132 526)"><path d="M0 -11L11 0L0 11L-11 0Z" fill="#016b5e"></path></g><g transform="translate(1156 84)"><path d="M0 -6L6 0L0 6L-6 0Z" fill="#016b5e"></path></g><g transform="translate(1155 389)"><path d="M0 -14L14 0L0 14L-14 0Z" fill="#016b5e"></path></g><g transform="translate(956 232)"><path d="M0 -15L15 0L0 15L-15 0Z" fill="#016b5e"></path></g><g transform="translate(774 565)"><path d="M0 -13L13 0L0 13L-13 0Z" fill="#016b5e"></path></g><g transform="translate(895 640)"><path d="M0 -7L7 0L0 7L-7 0Z" fill="#016b5e"></path></g><g transform="translate(121 220)"><path d="M0 -15L15 0L0 15L-15 0Z" fill="#016b5e"></path></g><g transform="translate(812 548)"><path d="M0 -10L10 0L0 10L-10 0Z" fill="#016b5e"></path></g><g transform="translate(64 252)"><path d="M0 -6L6 0L0 6L-6 0Z" fill="#016b5e"></path></g><g transform="translate(76 120)"><path d="M0 -4L4 0L0 4L-4 0Z" fill="#016b5e"></path></g><g transform="translate(147 508)"><path d="M0 -7L7 0L0 7L-7 0Z" fill="#016b5e"></path></g><g transform="translate(277 555)"><path d="M0 -7L7 0L0 7L-7 0Z" fill="#016b5e"></path></g><g transform="translate(470 22)"><path d="M0 -9L9 0L0 9L-9 0Z" fill="#016b5e"></path></g><g transform="translate(1429 749)"><path d="M0 -18L18 0L0 18L-18 0Z" fill="#016b5e"></path></g><g transform="translate(233 416)"><path d="M0 -12L12 0L0 12L-12 0Z" fill="#016b5e"></path></g><g transform="translate(1042 304)"><path d="M0 -14L14 0L0 14L-14 0Z" fill="#016b5e"></path></g><g transform="translate(1283 52)"><path d="M0 -12L12 0L0 12L-12 0Z" fill="#016b5e"></path></g><g transform="translate(1470 549)"><path d="M0 -8L8 0L0 8L-8 0Z" fill="#016b5e"></path></g><g transform="translate(602 413)"><path d="M0 -13L13 0L0 13L-13 0Z" fill="#016b5e"></path></g><g transform="translate(861 543)"><path d="M0 -14L14 0L0 14L-14 0Z" fill="#016b5e"></path></g><g transform="translate(934 187)"><path d="M0 -5L5 0L0 5L-5 0Z" fill="#016b5e"></path></g><g transform="translate(308 767)"><path d="M0 -6L6 0L0 6L-6 0Z" fill="#016b5e"></path></g><g transform="translate(684 595)"><path d="M0 -10L10 0L0 10L-10 0Z" fill="#016b5e"></path></g><g transform="translate(757 309)"><path d="M0 -17L17 0L0 17L-17 0Z" fill="#016b5e"></path></g><g transform="translate(407 489)"><path d="M0 -7L7 0L0 7L-7 0Z" fill="#016b5e"></path></g><g transform="translate(615 311)"><path d="M0 -9L9 0L0 9L-9 0Z" fill="#016b5e"></path></g><g transform="translate(951 728)"><path d="M0 -18L18 0L0 18L-18 0Z" fill="#016b5e"></path></g><g transform="translate(184 149)"><path d="M0 -18L18 0L0 18L-18 0Z" fill="#016b5e"></path></g><g transform="translate(1380 126)"><path d="M0 -17L17 0L0 17L-17 0Z" fill="#016b5e"></path></g><g transform="translate(1079 661)"><path d="M0 -12L12 0L0 12L-12 0Z" fill="#016b5e"></path></g><g transform="translate(172 768)"><path d="M0 -9L9 0L0 9L-9 0Z" fill="#016b5e"></path></g><g transform="translate(333 401)"><path d="M0 -8L8 0L0 8L-8 0Z" fill="#016b5e"></path></g><g transform="translate(1476 271)"><path d="M0 -16L16 0L0 16L-16 0Z" fill="#016b5e"></path></g><g transform="translate(1194 265)"><path d="M0 -14L14 0L0 14L-14 0Z" fill="#016b5e"></path></g><g transform="translate(1046 441)"><path d="M0 -17L17 0L0 17L-17 0Z" fill="#016b5e"></path></g><g transform="translate(652 236)"><path d="M0 -10L10 0L0 10L-10 0Z" fill="#016b5e"></path></g><g transform="translate(861 438)"><path d="M0 -10L10 0L0 10L-10 0Z" fill="#016b5e"></path></g><g transform="translate(1265 327)"><path d="M0 -8L8 0L0 8L-8 0Z" fill="#016b5e"></path></g><g transform="translate(243 738)"><path d="M0 -12L12 0L0 12L-12 0Z" fill="#016b5e"></path></g><g transform="translate(118 435)"><path d="M0 -12L12 0L0 12L-12 0Z" fill="#016b5e"></path></g><g transform="translate(493 322)"><path d="M0 -14L14 0L0 14L-14 0Z" fill="#016b5e"></path></g><g transform="translate(1197 737)"><path d="M0 -12L12 0L0 12L-12 0Z" fill="#016b5e"></path></g><g transform="translate(828 751)"><path d="M0 -9L9 0L0 9L-9 0Z" fill="#016b5e"></path></g><g transform="translate(994 628)"><path d="M0 -10L10 0L0 10L-10 0Z" fill="#016b5e"></path></g><g transform="translate(984 24)"><path d="M0 -14L14 0L0 14L-14 0Z" fill="#016b5e"></path></g><g transform="translate(525 221)"><path d="M0 -10L10 0L0 10L-10 0Z" fill="#016b5e"></path></g><g transform="translate(1340 71)"><path d="M0 -15L15 0L0 15L-15 0Z" fill="#016b5e"></path></g><g transform="translate(722 368)"><path d="M0 -12L12 0L0 12L-12 0Z" fill="#016b5e"></path></g><g transform="translate(729 61)"><path d="M0 -18L18 0L0 18L-18 0Z" fill="#016b5e"></path></g><g transform="translate(1163 484)"><path d="M0 -12L12 0L0 12L-12 0Z" fill="#016b5e"></path></g><g transform="translate(547 586)"><path d="M0 -11L11 0L0 11L-11 0Z" fill="#016b5e"></path></g><g transform="translate(575 143)"><path d="M0 -4L4 0L0 4L-4 0Z" fill="#016b5e"></path></g><g transform="translate(88 379)"><path d="M0 -13L13 0L0 13L-13 0Z" fill="#016b5e"></path></g><g transform="translate(312 83)"><path d="M0 -13L13 0L0 13L-13 0Z" fill="#016b5e"></path></g><g transform="translate(1186 37)"><path d="M0 -17L17 0L0 17L-17 0Z" fill="#016b5e"></path></g><g transform="translate(959 103)"><path d="M0 -16L16 0L0 16L-16 0Z" fill="#016b5e"></path></g><g transform="translate(1439 415)"><path d="M0 -8L8 0L0 8L-8 0Z" fill="#016b5e"></path></g><g transform="translate(375 532)"><path d="M0 -5L5 0L0 5L-5 0Z" fill="#016b5e"></path></g><g transform="translate(1013 174)"><path d="M0 -5L5 0L0 5L-5 0Z" fill="#016b5e"></path></g><g transform="translate(321 174)"><path d="M0 -16L16 0L0 16L-16 0Z" fill="#016b5e"></path></g><g transform="translate(82 63)"><path d="M0 -5L5 0L0 5L-5 0Z" fill="#016b5e"></path></g><g transform="translate(34 592)"><path d="M0 -11L11 0L0 11L-11 0Z" fill="#016b5e"></path></g><g transform="translate(786 366)"><path d="M0 -15L15 0L0 15L-15 0Z" fill="#016b5e"></path></g><g transform="translate(194 594)"><path d="M0 -10L10 0L0 10L-10 0Z" fill="#016b5e"></path></g><g transform="translate(1336 703)"><path d="M0 -4L4 0L0 4L-4 0Z" fill="#016b5e"></path></g><g transform="translate(155 118)"><path d="M0 -10L10 0L0 10L-10 0Z" fill="#016b5e"></path></g><g transform="translate(743 539)"><path d="M0 -17L17 0L0 17L-17 0Z" fill="#016b5e"></path></g><g transform="translate(792 477)"><path d="M0 -16L16 0L0 16L-16 0Z" fill="#016b5e"></path></g><g transform="translate(308 283)"><path d="M0 -18L18 0L0 18L-18 0Z" fill="#016b5e"></path></g><g transform="translate(669 765)"><path d="M0 -5L5 0L0 5L-5 0Z" fill="#016b5e"></path></g><g transform="translate(1388 218)"><path d="M0 -5L5 0L0 5L-5 0Z" fill="#016b5e"></path></g><g transform="translate(1322 423)"><path d="M0 -17L17 0L0 17L-17 0Z" fill="#016b5e"></path></g><g transform="translate(1225 145)"><path d="M0 -11L11 0L0 11L-11 0Z" fill="#016b5e"></path></g><g transform="translate(1477 643)"><path d="M0 -6L6 0L0 6L-6 0Z" fill="#016b5e"></path></g><g transform="translate(299 29)"><path d="M0 -9L9 0L0 9L-9 0Z" fill="#016b5e"></path></g><g transform="translate(785 261)"><path d="M0 -15L15 0L0 15L-15 0Z" fill="#016b5e"></path></g><g transform="translate(376 260)"><path d="M0 -10L10 0L0 10L-10 0Z" fill="#016b5e"></path></g><g transform="translate(647 180)"><path d="M0 -7L7 0L0 7L-7 0Z" fill="#016b5e"></path></g><g transform="translate(470 200)"><path d="M0 -9L9 0L0 9L-9 0Z" fill="#016b5e"></path></g><g transform="translate(256 277)"><path d="M0 -13L13 0L0 13L-13 0Z" fill="#016b5e"></path></g><g transform="translate(579 35)"><path d="M0 -18L18 0L0 18L-18 0Z" fill="#016b5e"></path></g><g transform="translate(1196 653)"><path d="M0 -10L10 0L0 10L-10 0Z" fill="#016b5e"></path></g><g transform="translate(398 125)"><path d="M0 -5L5 0L0 5L-5 0Z" fill="#016b5e"></path></g><g transform="translate(1097 123)"><path d="M0 -18L18 0L0 18L-18 0Z" fill="#016b5e"></path></g><g transform="translate(822 338)"><path d="M0 -12L12 0L0 12L-12 0Z" fill="#016b5e"></path></g><g transform="translate(1137 693)"><path d="M0 -4L4 0L0 4L-4 0Z" fill="#016b5e"></path></g><g transform="translate(1055 34)"><path d="M0 -18L18 0L0 18L-18 0Z" fill="#016b5e"></path></g><g transform="translate(1382 704)"><path d="M0 -18L18 0L0 18L-18 0Z" fill="#016b5e"></path></g><g transform="translate(1373 774)"><path d="M0 -11L11 0L0 11L-11 0Z" fill="#016b5e"></path></g><g transform="translate(1198 96)"><path d="M0 -11L11 0L0 11L-11 0Z" fill="#016b5e"></path></g><g transform="translate(514 356)"><path d="M0 -16L16 0L0 16L-16 0Z" fill="#016b5e"></path></g><g transform="translate(594 621)"><path d="M0 -18L18 0L0 18L-18 0Z" fill="#016b5e"></path></g><g transform="translate(813 53)"><path d="M0 -11L11 0L0 11L-11 0Z" fill="#016b5e"></path></g><g transform="translate(172 654)"><path d="M0 -18L18 0L0 18L-18 0Z" fill="#016b5e"></path></g><g transform="translate(611 486)"><path d="M0 -18L18 0L0 18L-18 0Z" fill="#016b5e"></path></g><g transform="translate(68 615)"><path d="M0 -4L4 0L0 4L-4 0Z" fill="#016b5e"></path></g><g transform="translate(615 142)"><path d="M0 -17L17 0L0 17L-17 0Z" fill="#016b5e"></path></g><g transform="translate(560 439)"><path d="M0 -12L12 0L0 12L-12 0Z" fill="#016b5e"></path></g><g transform="translate(366 599)"><path d="M0 -12L12 0L0 12L-12 0Z" fill="#016b5e"></path></g></g></svg>