<svg id="visual" viewBox="0 0 1800 1500" width="1800" height="1500" xmlns="http://www.w3.org/2000/svg" xmlns:xlink="http://www.w3.org/1999/xlink" version="1.1"><rect width="1800" height="1500" fill="#001829"></rect><g><g transform="translate(1445 849)"><path d="M0 -54L54 0L0 54L-54 0Z" fill="none" stroke="#387dfe" stroke-width="2"></path></g><g transform="translate(361 1335)"><path d="M0 -40L40 0L0 40L-40 0Z" fill="none" stroke="#387dfe" stroke-width="2"></path></g><g transform="translate(376 932)"><path d="M0 -27L27 0L0 27L-27 0Z" stroke="#387dfe" fill="none" stroke-width="2"></path></g><g transform="translate(63 1041)"><path d="M0 -40L40 0L0 40L-40 0Z" stroke="#387dfe" fill="none" stroke-width="2"></path></g><g transform="translate(533 507)"><path d="M0 -33L33 0L0 33L-33 0Z" stroke="#387dfe" fill="none" stroke-width="2"></path></g><g transform="translate(1601 1370)"><path d="M0 -53L53 0L0 53L-53 0Z" stroke="#387dfe" fill="none" stroke-width="2"></path></g><g transform="translate(733 608)"><path d="M0 -32L32 0L0 32L-32 0Z" stroke="#387dfe" fill="none" stroke-width="2"></path></g><g transform="translate(1322 241)"><path d="M0 -36L36 0L0 36L-36 0Z" stroke="#387dfe" fill="none" stroke-width="2"></path></g><g transform="translate(428 1424)"><path d="M0 -25L25 0L0 25L-25 0Z" stroke="#387dfe" fill="none" stroke-width="2"></path></g><g transform="translate(893 230)"><path d="M0 -52L52 0L0 52L-52 0Z" stroke="#387dfe" fill="none" stroke-width="2"></path></g><g transform="translate(704 1382)"><path d="M0 -26L26 0L0 26L-26 0Z" stroke="#387dfe" fill="none" stroke-width="2"></path></g><g transform="translate(54 248)"><path d="M0 -52L52 0L0 52L-52 0Z" stroke="#387dfe" fill="none" stroke-width="2"></path></g><g transform="translate(1717 427)"><path d="M0 -34L34 0L0 34L-34 0Z" stroke="#387dfe" fill="none" stroke-width="2"></path></g><g transform="translate(1545 692)"><path d="M0 -23L23 0L0 23L-23 0Z" stroke="#387dfe" fill="none" stroke-width="2"></path></g><g transform="translate(277 1234)"><path d="M0 -20L20 0L0 20L-20 0Z" stroke="#387dfe" fill="none" stroke-width="2"></path></g><g transform="translate(206 628)"><path d="M0 -46L46 0L0 46L-46 0Z" stroke="#387dfe" fill="none" stroke-width="2"></path></g><g transform="translate(1286 106)"><path d="M0 -17L17 0L0 17L-17 0Z" stroke="#387dfe" fill="none" stroke-width="2"></path></g><g transform="translate(1660 868)"><path d="M0 -15L15 0L0 15L-15 0Z" stroke="#387dfe" fill="none" stroke-width="2"></path></g><g transform="translate(1065 476)"><path d="M0 -51L51 0L0 51L-51 0Z" stroke="#387dfe" fill="none" stroke-width="2"></path></g><g transform="translate(1392 692)"><path d="M0 -46L46 0L0 46L-46 0Z" stroke="#387dfe" fill="none" stroke-width="2"></path></g><g transform="translate(1035 601)"><path d="M0 -46L46 0L0 46L-46 0Z" stroke="#387dfe" fill="none" stroke-width="2"></path></g><g transform="translate(1291 1073)"><path d="M0 -49L49 0L0 49L-49 0Z" stroke="#387dfe" fill="none" stroke-width="2"></path></g><g transform="translate(237 884)"><path d="M0 -35L35 0L0 35L-35 0Z" stroke="#387dfe" fill="none" stroke-width="2"></path></g><g transform="translate(726 153)"><path d="M0 -43L43 0L0 43L-43 0Z" stroke="#387dfe" fill="none" stroke-width="2"></path></g><g transform="translate(380 816)"><path d="M0 -16L16 0L0 16L-16 0Z" stroke="#387dfe" fill="none" stroke-width="2"></path></g><g transform="translate(1137 640)"><path d="M0 -34L34 0L0 34L-34 0Z" stroke="#387dfe" fill="none" stroke-width="2"></path></g></g></svg>