<svg id="visual" viewBox="0 0 1500 900" width="1500" height="900" xmlns="http://www.w3.org/2000/svg" xmlns:xlink="http://www.w3.org/1999/xlink" version="1.1"><rect width="1500" height="900" fill="#001829"></rect><g><g transform="translate(908 819)"><path d="M0 -42.2L42.2 0L0 42.2L-42.2 0Z" fill="none" stroke="#016b5e" stroke-width="2"></path></g><g transform="translate(679 614)"><path d="M0 -12L12 0L0 12L-12 0Z" fill="none" stroke="#016b5e" stroke-width="2"></path></g><g transform="translate(873 337)"><path d="M0 -6L6 0L0 6L-6 0Z" fill="none" stroke="#016b5e" stroke-width="2"></path></g><g transform="translate(243 371)"><path d="M0 -35L35 0L0 35L-35 0Z" fill="none" stroke="#016b5e" stroke-width="2"></path></g><g transform="translate(1161 118)"><path d="M0 -12L12 0L0 12L-12 0Z" fill="none" stroke="#016b5e" stroke-width="2"></path></g><g transform="translate(273 554)"><path d="M0 -7L7 0L0 7L-7 0Z" fill="none" stroke="#016b5e" stroke-width="2"></path></g><g transform="translate(607 709)"><path d="M0 -5L5 0L0 5L-5 0Z" stroke="#016b5e" fill="none" stroke-width="2"></path></g><g transform="translate(921 168)"><path d="M0 -29L29 0L0 29L-29 0Z" stroke="#016b5e" fill="none" stroke-width="2"></path></g><g transform="translate(1371 578)"><path d="M0 -25L25 0L0 25L-25 0Z" stroke="#016b5e" fill="none" stroke-width="2"></path></g><g transform="translate(1361 294)"><path d="M0 -20L20 0L0 20L-20 0Z" stroke="#016b5e" fill="none" stroke-width="2"></path></g><g transform="translate(1276 853)"><path d="M0 -26L26 0L0 26L-26 0Z" stroke="#016b5e" fill="none" stroke-width="2"></path></g><g transform="translate(376 435)"><path d="M0 -19L19 0L0 19L-19 0Z" stroke="#016b5e" fill="none" stroke-width="2"></path></g><g transform="translate(308 176)"><path d="M0 -8L8 0L0 8L-8 0Z" stroke="#016b5e" fill="none" stroke-width="2"></path></g><g transform="translate(1255 552)"><path d="M0 -27L27 0L0 27L-27 0Z" stroke="#016b5e" fill="none" stroke-width="2"></path></g><g transform="translate(190 578)"><path d="M0 -36L36 0L0 36L-36 0Z" stroke="#016b5e" fill="none" stroke-width="2"></path></g><g transform="translate(1028 136)"><path d="M0 -41L41 0L0 41L-41 0Z" stroke="#016b5e" fill="none" stroke-width="2"></path></g><g transform="translate(1060 450)"><path d="M0 -36L36 0L0 36L-36 0Z" stroke="#016b5e" fill="none" stroke-width="2"></path></g><g transform="translate(188 808)"><path d="M0 -9L9 0L0 9L-9 0Z" stroke="#016b5e" fill="none" stroke-width="2"></path></g><g transform="translate(1139 809)"><path d="M0 -22L22 0L0 22L-22 0Z" stroke="#016b5e" fill="none" stroke-width="2"></path></g><g transform="translate(570 283)"><path d="M0 -27L27 0L0 27L-27 0Z" stroke="#016b5e" fill="none" stroke-width="2"></path></g><g transform="translate(677 73)"><path d="M0 -9L9 0L0 9L-9 0Z" stroke="#016b5e" fill="none" stroke-width="2"></path></g><g transform="translate(89 108)"><path d="M0 -6L6 0L0 6L-6 0Z" stroke="#016b5e" fill="none" stroke-width="2"></path></g><g transform="translate(242 282)"><path d="M0 -7L7 0L0 7L-7 0Z" stroke="#016b5e" fill="none" stroke-width="2"></path></g><g transform="translate(491 65)"><path d="M0 -24L24 0L0 24L-24 0Z" stroke="#016b5e" fill="none" stroke-width="2"></path></g><g transform="translate(1171 459)"><path d="M0 -8L8 0L0 8L-8 0Z" stroke="#016b5e" fill="none" stroke-width="2"></path></g><g transform="translate(470 549)"><path d="M0 -21L21 0L0 21L-21 0Z" stroke="#016b5e" fill="none" stroke-width="2"></path></g><g transform="translate(751 141)"><path d="M0 -34L34 0L0 34L-34 0Z" stroke="#016b5e" fill="none" stroke-width="2"></path></g><g transform="translate(1399 179)"><path d="M0 -28L28 0L0 28L-28 0Z" stroke="#016b5e" fill="none" stroke-width="2"></path></g><g transform="translate(43 670)"><path d="M0 -8L8 0L0 8L-8 0Z" stroke="#016b5e" fill="none" stroke-width="2"></path></g><g transform="translate(1018 625)"><path d="M0 -28L28 0L0 28L-28 0Z" stroke="#016b5e" fill="none" stroke-width="2"></path></g><g transform="translate(791 289)"><path d="M0 -33L33 0L0 33L-33 0Z" stroke="#016b5e" fill="none" stroke-width="2"></path></g><g transform="translate(1389 752)"><path d="M0 -40L40 0L0 40L-40 0Z" stroke="#016b5e" fill="none" stroke-width="2"></path></g><g transform="translate(522 638)"><path d="M0 -6L6 0L0 6L-6 0Z" stroke="#016b5e" fill="none" stroke-width="2"></path></g><g transform="translate(831 506)"><path d="M0 -27L27 0L0 27L-27 0Z" stroke="#016b5e" fill="none" stroke-width="2"></path></g></g></svg>